<svg width="61" height="60" viewBox="0 0 61 60" fill="none" xmlns="http://www.w3.org/2000/svg">
<path d="M55.6216 15.7826C53.9041 10.6701 49.8291 6.5951 44.7191 4.8801C35.2841 1.7151 25.7166 1.7151 16.2841 4.8801C11.1716 6.5951 7.09656 10.6701 5.38156 15.7801C2.21656 25.2151 2.21656 34.7801 5.38156 44.2151C7.09656 49.3251 11.1716 53.4026 16.2841 55.1176C20.9941 56.6976 25.7766 57.4976 30.5016 57.4976C38.0566 57.4976 45.7116 56.5026 53.2541 54.5401C54.1316 54.3126 54.8166 53.6276 55.0441 52.7501C57.0066 45.2076 58.0016 37.5526 58.0016 29.9976C58.0016 25.2751 57.2016 20.4926 55.6216 15.7801V15.7826ZM42.6366 25.0451C37.2341 35.5026 29.9466 38.3251 29.6391 38.4401C29.3566 38.5451 29.0616 38.5976 28.7641 38.5976C28.4516 38.5976 28.1391 38.5401 27.8466 38.4251C27.3616 38.2351 22.9916 36.4101 18.6241 30.8776C17.7691 29.7926 17.9541 28.2226 19.0391 27.3651C20.1266 26.5126 21.6966 26.6951 22.5516 27.7801C25.0566 30.9576 27.4991 32.6026 28.7666 33.3151C30.5791 32.2926 34.7766 29.3651 38.1966 22.7501C38.8291 21.5251 40.3341 21.0401 41.5641 21.6776C42.7916 22.3101 43.2716 23.8176 42.6366 25.0451Z" fill="#359BFA"/>
</svg>
